<svg width="12" height="17" viewBox="0 0 12 17" fill="none" xmlns="http://www.w3.org/2000/svg">
<path d="M5.96 16.24C3.896 16.24 2.384 15.984 1.424 15.472C0.48 14.96 0.00800008 14.072 0.00800008 12.808V10.12C0.00800008 9.608 0.264 9.128 0.776 8.68C1.288 8.232 1.896 7.928 2.6 7.768V7.672C2.056 7.608 1.576 7.384 1.16 7C0.744 6.616 0.536 6.176 0.536 5.68V3.448C0.536 2.328 0.944 1.504 1.76 0.975999C2.592 0.447999 3.992 0.183999 5.96 0.183999C7.928 0.183999 9.32 0.447999 10.136 0.975999C10.968 1.504 11.384 2.328 11.384 3.448V5.68C11.384 6.176 11.176 6.616 10.76 7C10.344 7.384 9.864 7.608 9.32 7.672V7.768C10.024 7.928 10.632 8.232 11.144 8.68C11.656 9.128 11.912 9.608 11.912 10.12V12.808C11.912 14.104 11.424 15 10.448 15.496C9.472 15.992 7.976 16.24 5.96 16.24ZM5.96 6.832C6.664 6.832 7.152 6.736 7.424 6.544C7.712 6.336 7.856 6.008 7.856 5.56V3.76C7.856 3.296 7.712 2.968 7.424 2.776C7.152 2.568 6.664 2.464 5.96 2.464C5.256 2.464 4.76 2.568 4.472 2.776C4.2 2.968 4.064 3.296 4.064 3.76V5.56C4.064 5.976 4.2 6.296 4.472 6.52C4.728 6.728 5.224 6.832 5.96 6.832ZM5.96 13.96C6.648 13.96 7.144 13.92 7.448 13.84C7.768 13.76 7.976 13.624 8.072 13.432C8.184 13.24 8.24 12.936 8.24 12.52V10.408C8.24 9.944 8.104 9.6 7.832 9.376C7.56 9.168 6.944 9.064 5.984 9.064C5.072 9.064 4.456 9.168 4.136 9.376C3.832 9.568 3.68 9.912 3.68 10.408V12.52C3.68 12.936 3.728 13.24 3.824 13.432C3.936 13.624 4.144 13.76 4.448 13.84C4.768 13.92 5.272 13.96 5.96 13.96Z" fill="#6A5DC2"/>
</svg>
