<svg width="12" height="17" viewBox="0 0 12 17" fill="none" xmlns="http://www.w3.org/2000/svg">
<path d="M5.432 16.24C4.328 16.24 2.672 16.152 0.464 15.976V13.072C2.448 13.44 3.944 13.624 4.952 13.624C5.832 13.624 6.472 13.528 6.872 13.336C7.272 13.128 7.472 12.808 7.472 12.376V10.048C7.472 9.616 7.328 9.312 7.04 9.136C6.752 8.944 6.28 8.848 5.624 8.848H0.824V0.423999H10.664V3.112H4.328V6.28H6.776C7.704 6.28 8.608 6.456 9.488 6.808C9.968 7.016 10.352 7.336 10.64 7.768C10.928 8.2 11.072 8.704 11.072 9.28V12.544C11.072 13.168 10.952 13.728 10.712 14.224C10.472 14.704 10.168 15.072 9.8 15.328C9.48 15.568 9.048 15.76 8.504 15.904C7.976 16.048 7.464 16.144 6.968 16.192C6.392 16.224 5.88 16.24 5.432 16.24Z" fill="#6A5DC2"/>
</svg>
