<svg width="12" height="17" viewBox="0 0 12 17" fill="none" xmlns="http://www.w3.org/2000/svg">
<path d="M5.504 16.24C4.128 16.24 2.648 16.16 1.064 16V13.504C3.112 13.728 4.576 13.84 5.456 13.84C6.272 13.84 6.864 13.784 7.232 13.672C7.6 13.56 7.84 13.352 7.952 13.048C8.08 12.744 8.144 12.264 8.144 11.608V10.144H5.552C4.688 10.144 4.064 10.136 3.68 10.12C3.296 10.088 2.864 10.008 2.384 9.88C1.888 9.752 1.512 9.568 1.256 9.328C1 9.088 0.776 8.736 0.584 8.272C0.408 7.792 0.32 7.232 0.32 6.592V4.48C0.32 3.744 0.432 3.104 0.656 2.56C0.88 2 1.168 1.56 1.52 1.24C1.84 0.967999 2.256 0.743999 2.768 0.568C3.296 0.391999 3.816 0.279999 4.328 0.232C4.936 0.199999 5.488 0.183999 5.984 0.183999C6.736 0.183999 7.328 0.207999 7.76 0.256C8.208 0.287999 8.68 0.383999 9.176 0.543999C9.704 0.719999 10.128 0.96 10.448 1.264C10.784 1.552 11.064 1.968 11.288 2.512C11.512 3.088 11.624 3.744 11.624 4.48V11.728C11.624 13.344 11.136 14.504 10.16 15.208C9.2 15.896 7.648 16.24 5.504 16.24ZM8.144 7.816V4.168C8.144 3.624 8.096 3.248 8 3.04C7.92 2.832 7.736 2.696 7.448 2.632C7.176 2.568 6.672 2.536 5.936 2.536C5.264 2.536 4.784 2.576 4.496 2.656C4.224 2.72 4.04 2.864 3.944 3.088C3.848 3.296 3.8 3.656 3.8 4.168V6.544C3.8 6.928 3.848 7.208 3.944 7.384C4.04 7.544 4.232 7.656 4.52 7.72C4.824 7.784 5.304 7.816 5.96 7.816H8.144Z" fill="#6A5DC2"/>
</svg>
