<svg width="12" height="17" viewBox="0 0 12 17" fill="none" xmlns="http://www.w3.org/2000/svg">
<path d="M5.936 16.24C5.216 16.24 4.632 16.216 4.184 16.168C3.736 16.12 3.264 16.016 2.768 15.856C2.224 15.68 1.792 15.448 1.472 15.16C1.152 14.872 0.88 14.456 0.656 13.912C0.432 13.336 0.32 12.68 0.32 11.944V4.696C0.32 3.928 0.448 3.248 0.704 2.656C0.976 2.048 1.32 1.584 1.736 1.264C2.088 0.991999 2.56 0.767999 3.152 0.592C3.744 0.399999 4.32 0.279999 4.88 0.232C5.488 0.199999 6.04 0.183999 6.536 0.183999C7.224 0.183999 8.664 0.263999 10.856 0.423999V2.992C8.696 2.736 7.152 2.608 6.224 2.608C5.456 2.608 4.912 2.648 4.592 2.728C4.272 2.808 4.056 2.968 3.944 3.208C3.848 3.432 3.8 3.84 3.8 4.432V6.28H6.368C7.232 6.28 7.856 6.296 8.24 6.328C8.624 6.344 9.056 6.416 9.536 6.544C10.048 6.672 10.424 6.856 10.664 7.096C10.92 7.32 11.144 7.664 11.336 8.128C11.512 8.608 11.6 9.176 11.6 9.832V11.944C11.6 12.68 11.488 13.328 11.264 13.888C11.04 14.432 10.752 14.856 10.4 15.16C10.08 15.448 9.656 15.68 9.128 15.856C8.616 16.032 8.104 16.136 7.592 16.168C7.144 16.216 6.592 16.24 5.936 16.24ZM5.984 13.912C6.688 13.912 7.176 13.872 7.448 13.792C7.736 13.712 7.92 13.56 8 13.336C8.08 13.096 8.12 12.688 8.12 12.112V9.856C8.12 9.472 8.072 9.2 7.976 9.04C7.88 8.864 7.68 8.744 7.376 8.68C7.088 8.616 6.616 8.584 5.96 8.584H3.8V12.136C3.8 12.68 3.84 13.072 3.92 13.312C4.016 13.552 4.208 13.712 4.496 13.792C4.8 13.872 5.296 13.912 5.984 13.912Z" fill="#6A5DC2"/>
</svg>
