<svg width="25" height="17" viewBox="0 0 25 17" fill="none" xmlns="http://www.w3.org/2000/svg">
<path d="M4.288 4.096L0.04 6.448V3.496L4.96 0.423999H7.792V16H4.288V4.096ZM18.8579 16.24C18.1539 16.24 17.5779 16.216 17.1299 16.168C16.6819 16.12 16.1939 16.024 15.6659 15.88C15.1219 15.72 14.6819 15.496 14.3459 15.208C14.0099 14.904 13.7299 14.472 13.5059 13.912C13.2659 13.368 13.1459 12.712 13.1459 11.944V4.48C13.1459 3.744 13.2579 3.096 13.4819 2.536C13.7059 1.976 13.9939 1.536 14.3459 1.216C14.6499 0.943999 15.0659 0.728 15.5939 0.568C16.1219 0.391999 16.6499 0.279999 17.1779 0.232C17.7859 0.199999 18.3459 0.183999 18.8579 0.183999C19.5779 0.183999 20.1539 0.207999 20.5859 0.256C21.0179 0.287999 21.4979 0.383999 22.0259 0.543999C22.6019 0.719999 23.0579 0.952 23.3939 1.24C23.7299 1.528 24.0179 1.944 24.2579 2.488C24.4979 3.032 24.6179 3.696 24.6179 4.48V11.944C24.6179 12.68 24.4979 13.328 24.2579 13.888C24.0339 14.448 23.7459 14.88 23.3939 15.184C23.0739 15.456 22.6339 15.68 22.0739 15.856C21.5299 16.032 21.0099 16.136 20.5139 16.168C20.0659 16.216 19.5139 16.24 18.8579 16.24ZM18.9059 13.984C19.5779 13.984 20.0579 13.944 20.3459 13.864C20.6339 13.768 20.8259 13.6 20.9219 13.36C21.0179 13.12 21.0659 12.728 21.0659 12.184V4.24C21.0659 3.696 21.0179 3.304 20.9219 3.064C20.8259 2.824 20.6339 2.664 20.3459 2.584C20.0579 2.488 19.5779 2.44 18.9059 2.44C18.2179 2.44 17.7219 2.488 17.4179 2.584C17.1299 2.664 16.9379 2.824 16.8419 3.064C16.7459 3.304 16.6979 3.696 16.6979 4.24V12.184C16.6979 12.728 16.7459 13.12 16.8419 13.36C16.9379 13.6 17.1299 13.768 17.4179 13.864C17.7219 13.944 18.2179 13.984 18.9059 13.984Z" fill="#6A5DC2"/>
</svg>
