<svg width="12" height="17" viewBox="0 0 12 17" fill="none" xmlns="http://www.w3.org/2000/svg">
<path d="M5.36 16.24C4.016 16.24 2.272 16.12 0.128 15.88V13.096L0.896 13.24C1.2 13.304 1.368 13.344 1.4 13.36L2.216 13.504C2.408 13.536 2.816 13.584 3.44 13.648C3.92 13.696 4.408 13.72 4.904 13.72C5.832 13.72 6.472 13.608 6.824 13.384C7.192 13.16 7.376 12.736 7.376 12.112V10.312C7.376 9.56 6.568 9.184 4.952 9.184H2.12V6.784H4.952C6.2 6.784 6.824 6.328 6.824 5.416V3.904C6.824 3.568 6.76 3.312 6.632 3.136C6.504 2.944 6.272 2.808 5.936 2.728C5.616 2.648 5.136 2.608 4.496 2.608C3.584 2.608 2.176 2.704 0.272 2.896V0.399999C2.448 0.255999 3.984 0.183999 4.88 0.183999C6.832 0.183999 8.24 0.407999 9.104 0.855999C9.984 1.304 10.424 2.096 10.424 3.232V5.8C10.424 6.264 10.28 6.664 9.992 7C9.72 7.32 9.368 7.536 8.936 7.648C10.344 8.144 11.048 8.92 11.048 9.976V12.52C11.048 13.848 10.592 14.8 9.68 15.376C8.768 15.952 7.328 16.24 5.36 16.24Z" fill="#6A5DC2"/>
</svg>
