<svg width="12" height="16" viewBox="0 0 12 16" fill="none" xmlns="http://www.w3.org/2000/svg">
<path d="M0.392 12.448C0.392 11.584 0.632 10.832 1.112 10.192C1.592 9.552 2.216 9.064 2.984 8.728C3.592 8.456 4.304 8.184 5.12 7.912C5.936 7.64 6.568 7.352 7.016 7.048C7.464 6.744 7.688 6.384 7.688 5.968V3.976C7.688 3.48 7.488 3.152 7.088 2.992C6.656 2.816 5.984 2.728 5.072 2.728C3.968 2.728 2.512 2.928 0.704 3.328V0.688C2.304 0.351999 3.976 0.183999 5.72 0.183999C7.608 0.183999 9.008 0.471999 9.92 1.048C10.848 1.624 11.312 2.584 11.312 3.928V6.088C11.312 6.904 11.064 7.616 10.568 8.224C10.088 8.816 9.464 9.264 8.696 9.568C7.976 9.872 7.24 10.144 6.488 10.384C5.672 10.672 5.024 10.992 4.544 11.344C4.08 11.696 3.848 12.112 3.848 12.592V13.384H11.336V16H0.392V12.448Z" fill="#6A5DC2"/>
</svg>
